<mxfile host="app.diagrams.net" modified="2023-07-24T20:44:49.205Z" agent="Mozilla/5.0 (Windows NT 10.0; Win64; x64) AppleWebKit/537.36 (KHTML, like Gecko) Chrome/114.0.0.0 Safari/537.36" etag="Wkncnmev6McWcxqr6t6P" version="21.6.5" type="github">
  <diagram name="Página-1" id="QylRcB9uHjfK3iSPX28R">
    <mxGraphModel dx="1434" dy="756" grid="1" gridSize="10" guides="1" tooltips="1" connect="1" arrows="1" fold="1" page="1" pageScale="1" pageWidth="827" pageHeight="1169" math="0" shadow="0">
      <root>
        <mxCell id="0" />
        <mxCell id="1" parent="0" />
        <mxCell id="6VKLtYgtWfYLUNmkYSvm-1" value="&lt;h1 style=&quot;font-size: 18px;&quot;&gt;&lt;font style=&quot;font-size: 18px;&quot;&gt;Construa a modelagem que represente pessoas e seus dados, observando que:&lt;/font&gt;&lt;/h1&gt;&lt;h1 style=&quot;font-size: 18px;&quot;&gt;&lt;font style=&quot;font-size: 18px;&quot;&gt;- uma pessoa pode ter vários telefones e vários emails, porém, pode possuir somente uma CNH.&lt;/font&gt;&lt;/h1&gt;&lt;h1 style=&quot;font-size: 18px;&quot;&gt;&lt;font style=&quot;font-size: 18px;&quot;&gt;DQL&lt;/font&gt;&lt;/h1&gt;&lt;h1 style=&quot;font-size: 18px;&quot;&gt;&lt;font style=&quot;font-size: 18px;&quot;&gt;- listar as pessoas em ordem alfabética reversa, mostrando seus telefones, seus e-mails e suas CNHs&lt;/font&gt;&lt;/h1&gt;" style="text;html=1;strokeColor=none;fillColor=none;spacing=5;spacingTop=-20;whiteSpace=wrap;overflow=hidden;rounded=0;" vertex="1" parent="1">
          <mxGeometry x="40" y="230" width="760" height="200" as="geometry" />
        </mxCell>
        <mxCell id="6VKLtYgtWfYLUNmkYSvm-2" value="" style="group" vertex="1" connectable="0" parent="1">
          <mxGeometry x="40" y="560" width="680" height="130" as="geometry" />
        </mxCell>
        <mxCell id="6VKLtYgtWfYLUNmkYSvm-94" style="edgeStyle=orthogonalEdgeStyle;rounded=0;orthogonalLoop=1;jettySize=auto;html=1;" edge="1" parent="6VKLtYgtWfYLUNmkYSvm-2" source="6VKLtYgtWfYLUNmkYSvm-3">
          <mxGeometry relative="1" as="geometry">
            <mxPoint x="60" y="-80" as="targetPoint" />
          </mxGeometry>
        </mxCell>
        <mxCell id="6VKLtYgtWfYLUNmkYSvm-3" value="&lt;font style=&quot;font-size: 16px;&quot;&gt;Pessoa&lt;/font&gt;" style="rounded=1;whiteSpace=wrap;html=1;" vertex="1" parent="6VKLtYgtWfYLUNmkYSvm-2">
          <mxGeometry y="15" width="120" height="60" as="geometry" />
        </mxCell>
        <mxCell id="6VKLtYgtWfYLUNmkYSvm-4" value="" style="endArrow=classic;html=1;rounded=0;" edge="1" parent="6VKLtYgtWfYLUNmkYSvm-2">
          <mxGeometry width="50" height="50" relative="1" as="geometry">
            <mxPoint x="120" y="44.5" as="sourcePoint" />
            <mxPoint x="260" y="45" as="targetPoint" />
          </mxGeometry>
        </mxCell>
        <mxCell id="6VKLtYgtWfYLUNmkYSvm-5" value="&lt;font style=&quot;font-size: 16px;&quot;&gt;Possui&lt;/font&gt;" style="rhombus;whiteSpace=wrap;html=1;" vertex="1" parent="6VKLtYgtWfYLUNmkYSvm-2">
          <mxGeometry x="260" width="160" height="90" as="geometry" />
        </mxCell>
        <mxCell id="6VKLtYgtWfYLUNmkYSvm-6" value="&lt;font style=&quot;font-size: 16px;&quot;&gt;Telefone&lt;/font&gt;" style="rounded=1;whiteSpace=wrap;html=1;" vertex="1" parent="6VKLtYgtWfYLUNmkYSvm-2">
          <mxGeometry x="560" y="15" width="120" height="60" as="geometry" />
        </mxCell>
        <mxCell id="6VKLtYgtWfYLUNmkYSvm-7" value="" style="endArrow=classic;html=1;rounded=0;" edge="1" parent="6VKLtYgtWfYLUNmkYSvm-2">
          <mxGeometry width="50" height="50" relative="1" as="geometry">
            <mxPoint x="420" y="44.5" as="sourcePoint" />
            <mxPoint x="560" y="45" as="targetPoint" />
          </mxGeometry>
        </mxCell>
        <mxCell id="6VKLtYgtWfYLUNmkYSvm-8" value="1" style="text;html=1;strokeColor=none;fillColor=none;align=center;verticalAlign=middle;whiteSpace=wrap;rounded=0;" vertex="1" parent="6VKLtYgtWfYLUNmkYSvm-2">
          <mxGeometry x="120" y="15" width="60" height="30" as="geometry" />
        </mxCell>
        <mxCell id="6VKLtYgtWfYLUNmkYSvm-9" value="N" style="text;html=1;strokeColor=none;fillColor=none;align=center;verticalAlign=middle;whiteSpace=wrap;rounded=0;" vertex="1" parent="6VKLtYgtWfYLUNmkYSvm-2">
          <mxGeometry x="500" y="15" width="60" height="30" as="geometry" />
        </mxCell>
        <mxCell id="6VKLtYgtWfYLUNmkYSvm-10" value="&lt;font style=&quot;font-size: 16px;&quot;&gt;&lt;b&gt;DER&lt;/b&gt;&lt;/font&gt;" style="text;html=1;strokeColor=none;fillColor=none;align=center;verticalAlign=middle;whiteSpace=wrap;rounded=0;" vertex="1" parent="6VKLtYgtWfYLUNmkYSvm-2">
          <mxGeometry y="100" width="60" height="30" as="geometry" />
        </mxCell>
        <mxCell id="6VKLtYgtWfYLUNmkYSvm-34" value="1" style="text;html=1;strokeColor=none;fillColor=none;align=center;verticalAlign=middle;whiteSpace=wrap;rounded=0;" vertex="1" parent="6VKLtYgtWfYLUNmkYSvm-2">
          <mxGeometry x="80" y="75" width="60" height="30" as="geometry" />
        </mxCell>
        <mxCell id="6VKLtYgtWfYLUNmkYSvm-20" value="&lt;font style=&quot;font-size: 16px;&quot;&gt;Email&lt;/font&gt;" style="rounded=1;whiteSpace=wrap;html=1;" vertex="1" parent="1">
          <mxGeometry x="320" y="795" width="120" height="60" as="geometry" />
        </mxCell>
        <mxCell id="6VKLtYgtWfYLUNmkYSvm-35" value="N" style="text;html=1;strokeColor=none;fillColor=none;align=center;verticalAlign=middle;whiteSpace=wrap;rounded=0;" vertex="1" parent="1">
          <mxGeometry x="250" y="795" width="60" height="30" as="geometry" />
        </mxCell>
        <mxCell id="6VKLtYgtWfYLUNmkYSvm-36" value="&lt;font style=&quot;font-size: 16px;&quot;&gt;&lt;b&gt;MER&lt;/b&gt;&lt;/font&gt;" style="text;html=1;strokeColor=none;fillColor=none;align=center;verticalAlign=middle;whiteSpace=wrap;rounded=0;" vertex="1" parent="1">
          <mxGeometry x="40" y="1169" width="60" height="30" as="geometry" />
        </mxCell>
        <mxCell id="6VKLtYgtWfYLUNmkYSvm-22" value="" style="endArrow=classic;html=1;rounded=0;entryX=0;entryY=0.5;entryDx=0;entryDy=0;" edge="1" parent="1" source="6VKLtYgtWfYLUNmkYSvm-21" target="6VKLtYgtWfYLUNmkYSvm-20">
          <mxGeometry width="50" height="50" relative="1" as="geometry">
            <mxPoint x="120.03999999999996" y="635" as="sourcePoint" />
            <mxPoint x="120" y="777.02" as="targetPoint" />
            <Array as="points">
              <mxPoint x="120" y="825" />
            </Array>
          </mxGeometry>
        </mxCell>
        <mxCell id="6VKLtYgtWfYLUNmkYSvm-38" value="" style="endArrow=classic;html=1;rounded=0;entryX=0.5;entryY=0;entryDx=0;entryDy=0;" edge="1" parent="1" target="6VKLtYgtWfYLUNmkYSvm-21">
          <mxGeometry width="50" height="50" relative="1" as="geometry">
            <mxPoint x="120.03999999999996" y="635" as="sourcePoint" />
            <mxPoint x="320" y="825" as="targetPoint" />
            <Array as="points" />
          </mxGeometry>
        </mxCell>
        <mxCell id="6VKLtYgtWfYLUNmkYSvm-21" value="&lt;font style=&quot;font-size: 16px;&quot;&gt;Possui&lt;/font&gt;" style="rhombus;whiteSpace=wrap;html=1;" vertex="1" parent="1">
          <mxGeometry x="40" y="700" width="160" height="90" as="geometry" />
        </mxCell>
        <mxCell id="6VKLtYgtWfYLUNmkYSvm-39" value="Pessoa" style="shape=table;startSize=30;container=1;collapsible=1;childLayout=tableLayout;fixedRows=1;rowLines=0;fontStyle=1;align=center;resizeLast=1;html=1;whiteSpace=wrap;" vertex="1" parent="1">
          <mxGeometry x="40" y="1000" width="180" height="150" as="geometry" />
        </mxCell>
        <mxCell id="6VKLtYgtWfYLUNmkYSvm-40" value="" style="shape=tableRow;horizontal=0;startSize=0;swimlaneHead=0;swimlaneBody=0;fillColor=none;collapsible=0;dropTarget=0;points=[[0,0.5],[1,0.5]];portConstraint=eastwest;top=0;left=0;right=0;bottom=0;html=1;" vertex="1" parent="6VKLtYgtWfYLUNmkYSvm-39">
          <mxGeometry y="30" width="180" height="30" as="geometry" />
        </mxCell>
        <mxCell id="6VKLtYgtWfYLUNmkYSvm-41" value="PK" style="shape=partialRectangle;connectable=0;fillColor=none;top=0;left=0;bottom=0;right=0;fontStyle=1;overflow=hidden;html=1;whiteSpace=wrap;" vertex="1" parent="6VKLtYgtWfYLUNmkYSvm-40">
          <mxGeometry width="60" height="30" as="geometry">
            <mxRectangle width="60" height="30" as="alternateBounds" />
          </mxGeometry>
        </mxCell>
        <mxCell id="6VKLtYgtWfYLUNmkYSvm-42" value="id" style="shape=partialRectangle;connectable=0;fillColor=none;top=0;left=0;bottom=0;right=0;align=left;spacingLeft=6;fontStyle=5;overflow=hidden;html=1;whiteSpace=wrap;" vertex="1" parent="6VKLtYgtWfYLUNmkYSvm-40">
          <mxGeometry x="60" width="120" height="30" as="geometry">
            <mxRectangle width="120" height="30" as="alternateBounds" />
          </mxGeometry>
        </mxCell>
        <mxCell id="6VKLtYgtWfYLUNmkYSvm-43" value="" style="shape=tableRow;horizontal=0;startSize=0;swimlaneHead=0;swimlaneBody=0;fillColor=none;collapsible=0;dropTarget=0;points=[[0,0.5],[1,0.5]];portConstraint=eastwest;top=0;left=0;right=0;bottom=1;html=1;" vertex="1" parent="6VKLtYgtWfYLUNmkYSvm-39">
          <mxGeometry y="60" width="180" height="30" as="geometry" />
        </mxCell>
        <mxCell id="6VKLtYgtWfYLUNmkYSvm-44" value="" style="shape=partialRectangle;connectable=0;fillColor=none;top=0;left=0;bottom=0;right=0;fontStyle=1;overflow=hidden;html=1;whiteSpace=wrap;" vertex="1" parent="6VKLtYgtWfYLUNmkYSvm-43">
          <mxGeometry width="60" height="30" as="geometry">
            <mxRectangle width="60" height="30" as="alternateBounds" />
          </mxGeometry>
        </mxCell>
        <mxCell id="6VKLtYgtWfYLUNmkYSvm-45" value="" style="shape=partialRectangle;connectable=0;fillColor=none;top=0;left=0;bottom=0;right=0;align=left;spacingLeft=6;fontStyle=5;overflow=hidden;html=1;whiteSpace=wrap;" vertex="1" parent="6VKLtYgtWfYLUNmkYSvm-43">
          <mxGeometry x="60" width="120" height="30" as="geometry">
            <mxRectangle width="120" height="30" as="alternateBounds" />
          </mxGeometry>
        </mxCell>
        <mxCell id="6VKLtYgtWfYLUNmkYSvm-46" value="" style="shape=tableRow;horizontal=0;startSize=0;swimlaneHead=0;swimlaneBody=0;fillColor=none;collapsible=0;dropTarget=0;points=[[0,0.5],[1,0.5]];portConstraint=eastwest;top=0;left=0;right=0;bottom=0;html=1;" vertex="1" parent="6VKLtYgtWfYLUNmkYSvm-39">
          <mxGeometry y="90" width="180" height="30" as="geometry" />
        </mxCell>
        <mxCell id="6VKLtYgtWfYLUNmkYSvm-47" value="" style="shape=partialRectangle;connectable=0;fillColor=none;top=0;left=0;bottom=0;right=0;editable=1;overflow=hidden;html=1;whiteSpace=wrap;" vertex="1" parent="6VKLtYgtWfYLUNmkYSvm-46">
          <mxGeometry width="60" height="30" as="geometry">
            <mxRectangle width="60" height="30" as="alternateBounds" />
          </mxGeometry>
        </mxCell>
        <mxCell id="6VKLtYgtWfYLUNmkYSvm-48" value="Nome" style="shape=partialRectangle;connectable=0;fillColor=none;top=0;left=0;bottom=0;right=0;align=left;spacingLeft=6;overflow=hidden;html=1;whiteSpace=wrap;" vertex="1" parent="6VKLtYgtWfYLUNmkYSvm-46">
          <mxGeometry x="60" width="120" height="30" as="geometry">
            <mxRectangle width="120" height="30" as="alternateBounds" />
          </mxGeometry>
        </mxCell>
        <mxCell id="6VKLtYgtWfYLUNmkYSvm-49" value="" style="shape=tableRow;horizontal=0;startSize=0;swimlaneHead=0;swimlaneBody=0;fillColor=none;collapsible=0;dropTarget=0;points=[[0,0.5],[1,0.5]];portConstraint=eastwest;top=0;left=0;right=0;bottom=0;html=1;" vertex="1" parent="6VKLtYgtWfYLUNmkYSvm-39">
          <mxGeometry y="120" width="180" height="30" as="geometry" />
        </mxCell>
        <mxCell id="6VKLtYgtWfYLUNmkYSvm-50" value="" style="shape=partialRectangle;connectable=0;fillColor=none;top=0;left=0;bottom=0;right=0;editable=1;overflow=hidden;html=1;whiteSpace=wrap;" vertex="1" parent="6VKLtYgtWfYLUNmkYSvm-49">
          <mxGeometry width="60" height="30" as="geometry">
            <mxRectangle width="60" height="30" as="alternateBounds" />
          </mxGeometry>
        </mxCell>
        <mxCell id="6VKLtYgtWfYLUNmkYSvm-51" value="CNH" style="shape=partialRectangle;connectable=0;fillColor=none;top=0;left=0;bottom=0;right=0;align=left;spacingLeft=6;overflow=hidden;html=1;whiteSpace=wrap;" vertex="1" parent="6VKLtYgtWfYLUNmkYSvm-49">
          <mxGeometry x="60" width="120" height="30" as="geometry">
            <mxRectangle width="120" height="30" as="alternateBounds" />
          </mxGeometry>
        </mxCell>
        <mxCell id="6VKLtYgtWfYLUNmkYSvm-78" style="edgeStyle=orthogonalEdgeStyle;rounded=0;orthogonalLoop=1;jettySize=auto;html=1;entryX=1.011;entryY=0.1;entryDx=0;entryDy=0;entryPerimeter=0;" edge="1" parent="1" source="6VKLtYgtWfYLUNmkYSvm-52" target="6VKLtYgtWfYLUNmkYSvm-39">
          <mxGeometry relative="1" as="geometry" />
        </mxCell>
        <mxCell id="6VKLtYgtWfYLUNmkYSvm-52" value="Telefone" style="shape=table;startSize=30;container=1;collapsible=1;childLayout=tableLayout;fixedRows=1;rowLines=0;fontStyle=1;align=center;resizeLast=1;html=1;whiteSpace=wrap;" vertex="1" parent="1">
          <mxGeometry x="340" y="1000" width="180" height="150" as="geometry" />
        </mxCell>
        <mxCell id="6VKLtYgtWfYLUNmkYSvm-53" value="" style="shape=tableRow;horizontal=0;startSize=0;swimlaneHead=0;swimlaneBody=0;fillColor=none;collapsible=0;dropTarget=0;points=[[0,0.5],[1,0.5]];portConstraint=eastwest;top=0;left=0;right=0;bottom=0;html=1;" vertex="1" parent="6VKLtYgtWfYLUNmkYSvm-52">
          <mxGeometry y="30" width="180" height="30" as="geometry" />
        </mxCell>
        <mxCell id="6VKLtYgtWfYLUNmkYSvm-54" value="PK" style="shape=partialRectangle;connectable=0;fillColor=none;top=0;left=0;bottom=0;right=0;fontStyle=1;overflow=hidden;html=1;whiteSpace=wrap;" vertex="1" parent="6VKLtYgtWfYLUNmkYSvm-53">
          <mxGeometry width="60" height="30" as="geometry">
            <mxRectangle width="60" height="30" as="alternateBounds" />
          </mxGeometry>
        </mxCell>
        <mxCell id="6VKLtYgtWfYLUNmkYSvm-55" value="id" style="shape=partialRectangle;connectable=0;fillColor=none;top=0;left=0;bottom=0;right=0;align=left;spacingLeft=6;fontStyle=5;overflow=hidden;html=1;whiteSpace=wrap;" vertex="1" parent="6VKLtYgtWfYLUNmkYSvm-53">
          <mxGeometry x="60" width="120" height="30" as="geometry">
            <mxRectangle width="120" height="30" as="alternateBounds" />
          </mxGeometry>
        </mxCell>
        <mxCell id="6VKLtYgtWfYLUNmkYSvm-56" value="" style="shape=tableRow;horizontal=0;startSize=0;swimlaneHead=0;swimlaneBody=0;fillColor=none;collapsible=0;dropTarget=0;points=[[0,0.5],[1,0.5]];portConstraint=eastwest;top=0;left=0;right=0;bottom=1;html=1;" vertex="1" parent="6VKLtYgtWfYLUNmkYSvm-52">
          <mxGeometry y="60" width="180" height="30" as="geometry" />
        </mxCell>
        <mxCell id="6VKLtYgtWfYLUNmkYSvm-57" value="" style="shape=partialRectangle;connectable=0;fillColor=none;top=0;left=0;bottom=0;right=0;fontStyle=1;overflow=hidden;html=1;whiteSpace=wrap;" vertex="1" parent="6VKLtYgtWfYLUNmkYSvm-56">
          <mxGeometry width="60" height="30" as="geometry">
            <mxRectangle width="60" height="30" as="alternateBounds" />
          </mxGeometry>
        </mxCell>
        <mxCell id="6VKLtYgtWfYLUNmkYSvm-58" value="" style="shape=partialRectangle;connectable=0;fillColor=none;top=0;left=0;bottom=0;right=0;align=left;spacingLeft=6;fontStyle=5;overflow=hidden;html=1;whiteSpace=wrap;" vertex="1" parent="6VKLtYgtWfYLUNmkYSvm-56">
          <mxGeometry x="60" width="120" height="30" as="geometry">
            <mxRectangle width="120" height="30" as="alternateBounds" />
          </mxGeometry>
        </mxCell>
        <mxCell id="6VKLtYgtWfYLUNmkYSvm-59" value="" style="shape=tableRow;horizontal=0;startSize=0;swimlaneHead=0;swimlaneBody=0;fillColor=none;collapsible=0;dropTarget=0;points=[[0,0.5],[1,0.5]];portConstraint=eastwest;top=0;left=0;right=0;bottom=0;html=1;" vertex="1" parent="6VKLtYgtWfYLUNmkYSvm-52">
          <mxGeometry y="90" width="180" height="30" as="geometry" />
        </mxCell>
        <mxCell id="6VKLtYgtWfYLUNmkYSvm-60" value="" style="shape=partialRectangle;connectable=0;fillColor=none;top=0;left=0;bottom=0;right=0;editable=1;overflow=hidden;html=1;whiteSpace=wrap;" vertex="1" parent="6VKLtYgtWfYLUNmkYSvm-59">
          <mxGeometry width="60" height="30" as="geometry">
            <mxRectangle width="60" height="30" as="alternateBounds" />
          </mxGeometry>
        </mxCell>
        <mxCell id="6VKLtYgtWfYLUNmkYSvm-61" value="Numero" style="shape=partialRectangle;connectable=0;fillColor=none;top=0;left=0;bottom=0;right=0;align=left;spacingLeft=6;overflow=hidden;html=1;whiteSpace=wrap;" vertex="1" parent="6VKLtYgtWfYLUNmkYSvm-59">
          <mxGeometry x="60" width="120" height="30" as="geometry">
            <mxRectangle width="120" height="30" as="alternateBounds" />
          </mxGeometry>
        </mxCell>
        <mxCell id="6VKLtYgtWfYLUNmkYSvm-62" value="" style="shape=tableRow;horizontal=0;startSize=0;swimlaneHead=0;swimlaneBody=0;fillColor=none;collapsible=0;dropTarget=0;points=[[0,0.5],[1,0.5]];portConstraint=eastwest;top=0;left=0;right=0;bottom=0;html=1;" vertex="1" parent="6VKLtYgtWfYLUNmkYSvm-52">
          <mxGeometry y="120" width="180" height="30" as="geometry" />
        </mxCell>
        <mxCell id="6VKLtYgtWfYLUNmkYSvm-63" value="FK" style="shape=partialRectangle;connectable=0;fillColor=none;top=0;left=0;bottom=0;right=0;editable=1;overflow=hidden;html=1;whiteSpace=wrap;" vertex="1" parent="6VKLtYgtWfYLUNmkYSvm-62">
          <mxGeometry width="60" height="30" as="geometry">
            <mxRectangle width="60" height="30" as="alternateBounds" />
          </mxGeometry>
        </mxCell>
        <mxCell id="6VKLtYgtWfYLUNmkYSvm-64" value="Pessoa_ID" style="shape=partialRectangle;connectable=0;fillColor=none;top=0;left=0;bottom=0;right=0;align=left;spacingLeft=6;overflow=hidden;html=1;whiteSpace=wrap;" vertex="1" parent="6VKLtYgtWfYLUNmkYSvm-62">
          <mxGeometry x="60" width="120" height="30" as="geometry">
            <mxRectangle width="120" height="30" as="alternateBounds" />
          </mxGeometry>
        </mxCell>
        <mxCell id="6VKLtYgtWfYLUNmkYSvm-79" style="edgeStyle=orthogonalEdgeStyle;rounded=0;orthogonalLoop=1;jettySize=auto;html=1;" edge="1" parent="1" source="6VKLtYgtWfYLUNmkYSvm-65">
          <mxGeometry relative="1" as="geometry">
            <mxPoint x="130" y="1160" as="targetPoint" />
          </mxGeometry>
        </mxCell>
        <mxCell id="6VKLtYgtWfYLUNmkYSvm-65" value="Email" style="shape=table;startSize=30;container=1;collapsible=1;childLayout=tableLayout;fixedRows=1;rowLines=0;fontStyle=1;align=center;resizeLast=1;html=1;whiteSpace=wrap;" vertex="1" parent="1">
          <mxGeometry x="340" y="1220" width="180" height="150" as="geometry" />
        </mxCell>
        <mxCell id="6VKLtYgtWfYLUNmkYSvm-66" value="" style="shape=tableRow;horizontal=0;startSize=0;swimlaneHead=0;swimlaneBody=0;fillColor=none;collapsible=0;dropTarget=0;points=[[0,0.5],[1,0.5]];portConstraint=eastwest;top=0;left=0;right=0;bottom=0;html=1;" vertex="1" parent="6VKLtYgtWfYLUNmkYSvm-65">
          <mxGeometry y="30" width="180" height="30" as="geometry" />
        </mxCell>
        <mxCell id="6VKLtYgtWfYLUNmkYSvm-67" value="PK" style="shape=partialRectangle;connectable=0;fillColor=none;top=0;left=0;bottom=0;right=0;fontStyle=1;overflow=hidden;html=1;whiteSpace=wrap;" vertex="1" parent="6VKLtYgtWfYLUNmkYSvm-66">
          <mxGeometry width="60" height="30" as="geometry">
            <mxRectangle width="60" height="30" as="alternateBounds" />
          </mxGeometry>
        </mxCell>
        <mxCell id="6VKLtYgtWfYLUNmkYSvm-68" value="id" style="shape=partialRectangle;connectable=0;fillColor=none;top=0;left=0;bottom=0;right=0;align=left;spacingLeft=6;fontStyle=5;overflow=hidden;html=1;whiteSpace=wrap;" vertex="1" parent="6VKLtYgtWfYLUNmkYSvm-66">
          <mxGeometry x="60" width="120" height="30" as="geometry">
            <mxRectangle width="120" height="30" as="alternateBounds" />
          </mxGeometry>
        </mxCell>
        <mxCell id="6VKLtYgtWfYLUNmkYSvm-69" value="" style="shape=tableRow;horizontal=0;startSize=0;swimlaneHead=0;swimlaneBody=0;fillColor=none;collapsible=0;dropTarget=0;points=[[0,0.5],[1,0.5]];portConstraint=eastwest;top=0;left=0;right=0;bottom=1;html=1;" vertex="1" parent="6VKLtYgtWfYLUNmkYSvm-65">
          <mxGeometry y="60" width="180" height="30" as="geometry" />
        </mxCell>
        <mxCell id="6VKLtYgtWfYLUNmkYSvm-70" value="" style="shape=partialRectangle;connectable=0;fillColor=none;top=0;left=0;bottom=0;right=0;fontStyle=1;overflow=hidden;html=1;whiteSpace=wrap;" vertex="1" parent="6VKLtYgtWfYLUNmkYSvm-69">
          <mxGeometry width="60" height="30" as="geometry">
            <mxRectangle width="60" height="30" as="alternateBounds" />
          </mxGeometry>
        </mxCell>
        <mxCell id="6VKLtYgtWfYLUNmkYSvm-71" value="" style="shape=partialRectangle;connectable=0;fillColor=none;top=0;left=0;bottom=0;right=0;align=left;spacingLeft=6;fontStyle=5;overflow=hidden;html=1;whiteSpace=wrap;" vertex="1" parent="6VKLtYgtWfYLUNmkYSvm-69">
          <mxGeometry x="60" width="120" height="30" as="geometry">
            <mxRectangle width="120" height="30" as="alternateBounds" />
          </mxGeometry>
        </mxCell>
        <mxCell id="6VKLtYgtWfYLUNmkYSvm-72" value="" style="shape=tableRow;horizontal=0;startSize=0;swimlaneHead=0;swimlaneBody=0;fillColor=none;collapsible=0;dropTarget=0;points=[[0,0.5],[1,0.5]];portConstraint=eastwest;top=0;left=0;right=0;bottom=0;html=1;" vertex="1" parent="6VKLtYgtWfYLUNmkYSvm-65">
          <mxGeometry y="90" width="180" height="30" as="geometry" />
        </mxCell>
        <mxCell id="6VKLtYgtWfYLUNmkYSvm-73" value="" style="shape=partialRectangle;connectable=0;fillColor=none;top=0;left=0;bottom=0;right=0;editable=1;overflow=hidden;html=1;whiteSpace=wrap;" vertex="1" parent="6VKLtYgtWfYLUNmkYSvm-72">
          <mxGeometry width="60" height="30" as="geometry">
            <mxRectangle width="60" height="30" as="alternateBounds" />
          </mxGeometry>
        </mxCell>
        <mxCell id="6VKLtYgtWfYLUNmkYSvm-74" value="Endereço" style="shape=partialRectangle;connectable=0;fillColor=none;top=0;left=0;bottom=0;right=0;align=left;spacingLeft=6;overflow=hidden;html=1;whiteSpace=wrap;" vertex="1" parent="6VKLtYgtWfYLUNmkYSvm-72">
          <mxGeometry x="60" width="120" height="30" as="geometry">
            <mxRectangle width="120" height="30" as="alternateBounds" />
          </mxGeometry>
        </mxCell>
        <mxCell id="6VKLtYgtWfYLUNmkYSvm-75" value="" style="shape=tableRow;horizontal=0;startSize=0;swimlaneHead=0;swimlaneBody=0;fillColor=none;collapsible=0;dropTarget=0;points=[[0,0.5],[1,0.5]];portConstraint=eastwest;top=0;left=0;right=0;bottom=0;html=1;" vertex="1" parent="6VKLtYgtWfYLUNmkYSvm-65">
          <mxGeometry y="120" width="180" height="30" as="geometry" />
        </mxCell>
        <mxCell id="6VKLtYgtWfYLUNmkYSvm-76" value="FK" style="shape=partialRectangle;connectable=0;fillColor=none;top=0;left=0;bottom=0;right=0;editable=1;overflow=hidden;html=1;whiteSpace=wrap;" vertex="1" parent="6VKLtYgtWfYLUNmkYSvm-75">
          <mxGeometry width="60" height="30" as="geometry">
            <mxRectangle width="60" height="30" as="alternateBounds" />
          </mxGeometry>
        </mxCell>
        <mxCell id="6VKLtYgtWfYLUNmkYSvm-77" value="Pessoa_ID" style="shape=partialRectangle;connectable=0;fillColor=none;top=0;left=0;bottom=0;right=0;align=left;spacingLeft=6;overflow=hidden;html=1;whiteSpace=wrap;" vertex="1" parent="6VKLtYgtWfYLUNmkYSvm-75">
          <mxGeometry x="60" width="120" height="30" as="geometry">
            <mxRectangle width="120" height="30" as="alternateBounds" />
          </mxGeometry>
        </mxCell>
        <mxCell id="6VKLtYgtWfYLUNmkYSvm-80" value="&lt;font style=&quot;font-size: 16px;&quot;&gt;Pessoa&lt;/font&gt;" style="rounded=1;whiteSpace=wrap;html=1;" vertex="1" parent="1">
          <mxGeometry x="480" y="450" width="120" height="60" as="geometry" />
        </mxCell>
        <mxCell id="6VKLtYgtWfYLUNmkYSvm-81" value="&lt;font style=&quot;font-size: 16px;&quot;&gt;Possui&lt;/font&gt;" style="rhombus;whiteSpace=wrap;html=1;" vertex="1" parent="1">
          <mxGeometry x="100" y="435" width="160" height="90" as="geometry" />
        </mxCell>
        <mxCell id="6VKLtYgtWfYLUNmkYSvm-82" value="" style="endArrow=classic;html=1;rounded=0;entryX=0;entryY=0.5;entryDx=0;entryDy=0;" edge="1" parent="1" target="6VKLtYgtWfYLUNmkYSvm-80">
          <mxGeometry width="50" height="50" relative="1" as="geometry">
            <mxPoint x="260" y="480" as="sourcePoint" />
            <mxPoint x="400" y="480.5" as="targetPoint" />
          </mxGeometry>
        </mxCell>
        <mxCell id="6VKLtYgtWfYLUNmkYSvm-93" value="1" style="text;html=1;strokeColor=none;fillColor=none;align=center;verticalAlign=middle;whiteSpace=wrap;rounded=0;" vertex="1" parent="1">
          <mxGeometry x="420" y="450" width="60" height="30" as="geometry" />
        </mxCell>
        <mxCell id="6VKLtYgtWfYLUNmkYSvm-95" value="1" style="text;html=1;strokeColor=none;fillColor=none;align=center;verticalAlign=middle;whiteSpace=wrap;rounded=0;" vertex="1" parent="1">
          <mxGeometry x="100" y="540" width="60" height="30" as="geometry" />
        </mxCell>
        <mxCell id="6VKLtYgtWfYLUNmkYSvm-96" value="&lt;h1&gt;&lt;font style=&quot;font-size: 16px;&quot;&gt;Agora, para listar as pessoas em ordem alfabética reversa, mostrando seus telefones, seus emails e suas CNHs, podemos usar a seguinte consulta DQL (Data Query Language):&lt;/font&gt;&lt;br&gt;&lt;/h1&gt;&lt;div&gt;&lt;font style=&quot;font-size: 16px;&quot;&gt;&lt;br&gt;&lt;/font&gt;&lt;/div&gt;&lt;div&gt;&lt;font style=&quot;&quot;&gt;&lt;div style=&quot;&quot;&gt;SELECT p.Nome, t.Numero AS Telefone, e.Endereço AS Email, p.CNH&lt;/div&gt;&lt;div style=&quot;&quot;&gt;&lt;span style=&quot;font-size: 16px;&quot;&gt;FROM Pessoa p&lt;/span&gt;&lt;/div&gt;&lt;div style=&quot;&quot;&gt;&lt;span style=&quot;font-size: 16px;&quot;&gt;LEFT JOIN Telefone t ON p.ID = t.Pessoa_ID&lt;/span&gt;&lt;/div&gt;&lt;div style=&quot;&quot;&gt;&lt;span style=&quot;font-size: 16px;&quot;&gt;LEFT JOIN Email e ON p.ID = e.Pessoa_ID&lt;/span&gt;&lt;/div&gt;&lt;div style=&quot;&quot;&gt;&lt;span style=&quot;font-size: 16px;&quot;&gt;ORDER BY p.Nome DESC;&lt;/span&gt;&lt;/div&gt;&lt;div style=&quot;font-size: 16px;&quot;&gt;&lt;br&gt;&lt;/div&gt;&lt;/font&gt;&lt;/div&gt;" style="text;html=1;strokeColor=none;fillColor=none;spacing=5;spacingTop=-20;whiteSpace=wrap;overflow=hidden;rounded=0;" vertex="1" parent="1">
          <mxGeometry x="40" y="1430" width="760" height="200" as="geometry" />
        </mxCell>
      </root>
    </mxGraphModel>
  </diagram>
</mxfile>
